<?xml version="1.0" encoding="UTF-8" standalone="no"?>
<!DOCTYPE svg PUBLIC "-//W3C//DTD SVG 1.1//EN"
 "http://www.w3.org/Graphics/SVG/1.1/DTD/svg11.dtd">
<!-- Generated by graphviz version 2.43.0 (0)
 -->
<!-- Title: %3 Pages: 1 -->
<svg width="632pt" height="309pt"
 viewBox="0.00 0.00 632.00 309.00" xmlns="http://www.w3.org/2000/svg" xmlns:xlink="http://www.w3.org/1999/xlink">
<g id="graph0" class="graph" transform="scale(1 1) rotate(0) translate(4 305)">
<title>%3</title>
<polygon fill="white" stroke="#000000" points="-4,4 -4,-305 628,-305 628,4 -4,4"/>
<g id="clust1" class="cluster">
<title>outer_cluster_3</title>
</g>
<g id="clust2" class="cluster">
<title>cluster_3</title>
<path fill="#ffffb3" stroke="black" stroke-dasharray="5,2" d="M23,-11C23,-11 69,-11 69,-11 75,-11 81,-17 81,-23 81,-23 81,-41 81,-41 81,-47 75,-53 69,-53 69,-53 23,-53 23,-53 17,-53 11,-47 11,-41 11,-41 11,-23 11,-23 11,-17 17,-11 23,-11"/>
</g>
<g id="clust4" class="cluster">
<title>outer_cluster_14</title>
</g>
<g id="clust5" class="cluster">
<title>cluster_14</title>
<path fill="#ffffb3" stroke="black" stroke-dasharray="5,2" d="M305,-248C305,-248 349,-248 349,-248 355,-248 361,-254 361,-260 361,-260 361,-278 361,-278 361,-284 355,-290 349,-290 349,-290 305,-290 305,-290 299,-290 293,-284 293,-278 293,-278 293,-260 293,-260 293,-254 299,-248 305,-248"/>
</g>
<g id="clust7" class="cluster">
<title>outer_cluster_4</title>
</g>
<g id="clust8" class="cluster">
<title>cluster_4</title>
<path fill="#ffffb3" stroke="black" stroke-dasharray="5,2" d="M99,-11C99,-11 145,-11 145,-11 151,-11 157,-17 157,-23 157,-23 157,-41 157,-41 157,-47 151,-53 145,-53 145,-53 99,-53 99,-53 93,-53 87,-47 87,-41 87,-41 87,-23 87,-23 87,-17 93,-11 99,-11"/>
</g>
<g id="clust10" class="cluster">
<title>outer_cluster_8</title>
</g>
<g id="clust11" class="cluster">
<title>cluster_8</title>
<path fill="#ffffb3" stroke="black" stroke-dasharray="5,2" d="M366,-90C366,-90 410,-90 410,-90 416,-90 422,-96 422,-102 422,-102 422,-120 422,-120 422,-126 416,-132 410,-132 410,-132 366,-132 366,-132 360,-132 354,-126 354,-120 354,-120 354,-102 354,-102 354,-96 360,-90 366,-90"/>
</g>
<g id="clust13" class="cluster">
<title>outer_cluster_9</title>
</g>
<g id="clust14" class="cluster">
<title>cluster_9</title>
<path fill="#ffffb3" stroke="black" stroke-dasharray="5,2" d="M479,-11C479,-11 525,-11 525,-11 531,-11 537,-17 537,-23 537,-23 537,-41 537,-41 537,-47 531,-53 525,-53 525,-53 479,-53 479,-53 473,-53 467,-47 467,-41 467,-41 467,-23 467,-23 467,-17 473,-11 479,-11"/>
</g>
<g id="clust16" class="cluster">
<title>outer_cluster_7</title>
</g>
<g id="clust17" class="cluster">
<title>cluster_7</title>
<path fill="#ffffb3" stroke="black" stroke-dasharray="5,2" d="M403,-11C403,-11 449,-11 449,-11 455,-11 461,-17 461,-23 461,-23 461,-41 461,-41 461,-47 455,-53 449,-53 449,-53 403,-53 403,-53 397,-53 391,-47 391,-41 391,-41 391,-23 391,-23 391,-17 397,-11 403,-11"/>
</g>
<g id="clust19" class="cluster">
<title>outer_cluster_6</title>
</g>
<g id="clust20" class="cluster">
<title>cluster_6</title>
<path fill="#ffffb3" stroke="black" stroke-dasharray="5,2" d="M327,-11C327,-11 373,-11 373,-11 379,-11 385,-17 385,-23 385,-23 385,-41 385,-41 385,-47 379,-53 373,-53 373,-53 327,-53 327,-53 321,-53 315,-47 315,-41 315,-41 315,-23 315,-23 315,-17 321,-11 327,-11"/>
</g>
<g id="clust22" class="cluster">
<title>outer_cluster_5</title>
</g>
<g id="clust23" class="cluster">
<title>cluster_5</title>
<path fill="#ffffb3" stroke="black" stroke-dasharray="5,2" d="M85,-90C85,-90 129,-90 129,-90 135,-90 141,-96 141,-102 141,-102 141,-120 141,-120 141,-126 135,-132 129,-132 129,-132 85,-132 85,-132 79,-132 73,-126 73,-120 73,-120 73,-102 73,-102 73,-96 79,-90 85,-90"/>
</g>
<g id="clust25" class="cluster">
<title>outer_cluster_2</title>
</g>
<g id="clust26" class="cluster">
<title>cluster_2</title>
<path fill="#ffffb3" stroke="black" stroke-dasharray="5,2" d="M214,-90C214,-90 258,-90 258,-90 264,-90 270,-96 270,-102 270,-102 270,-120 270,-120 270,-126 264,-132 258,-132 258,-132 214,-132 214,-132 208,-132 202,-126 202,-120 202,-120 202,-102 202,-102 202,-96 208,-90 214,-90"/>
</g>
<g id="clust28" class="cluster">
<title>outer_cluster_13</title>
</g>
<g id="clust29" class="cluster">
<title>cluster_13</title>
<path fill="#ffffb3" stroke="black" stroke-dasharray="5,2" d="M381,-169C381,-169 425,-169 425,-169 431,-169 437,-175 437,-181 437,-181 437,-199 437,-199 437,-205 431,-211 425,-211 425,-211 381,-211 381,-211 375,-211 369,-205 369,-199 369,-199 369,-181 369,-181 369,-175 375,-169 381,-169"/>
</g>
<g id="clust31" class="cluster">
<title>outer_cluster_0</title>
</g>
<g id="clust32" class="cluster">
<title>cluster_0</title>
<path fill="#ffffb3" stroke="black" stroke-dasharray="5,2" d="M175,-11C175,-11 221,-11 221,-11 227,-11 233,-17 233,-23 233,-23 233,-41 233,-41 233,-47 227,-53 221,-53 221,-53 175,-53 175,-53 169,-53 163,-47 163,-41 163,-41 163,-23 163,-23 163,-17 169,-11 175,-11"/>
</g>
<g id="clust34" class="cluster">
<title>outer_cluster_10</title>
</g>
<g id="clust35" class="cluster">
<title>cluster_10</title>
<path fill="#ffffb3" stroke="black" stroke-dasharray="5,2" d="M555,-11C555,-11 601,-11 601,-11 607,-11 613,-17 613,-23 613,-23 613,-41 613,-41 613,-47 607,-53 601,-53 601,-53 555,-53 555,-53 549,-53 543,-47 543,-41 543,-41 543,-23 543,-23 543,-17 549,-11 555,-11"/>
</g>
<g id="clust40" class="cluster">
<title>outer_cluster_1</title>
</g>
<g id="clust41" class="cluster">
<title>cluster_1</title>
<path fill="#ffffb3" stroke="black" stroke-dasharray="5,2" d="M251,-11C251,-11 297,-11 297,-11 303,-11 309,-17 309,-23 309,-23 309,-41 309,-41 309,-47 303,-53 297,-53 297,-53 251,-53 251,-53 245,-53 239,-47 239,-41 239,-41 239,-23 239,-23 239,-17 245,-11 251,-11"/>
</g>
<g id="clust37" class="cluster">
<title>outer_cluster_12</title>
</g>
<g id="clust38" class="cluster">
<title>cluster_12</title>
<path fill="#ffffb3" stroke="black" stroke-dasharray="5,2" d="M229,-169C229,-169 273,-169 273,-169 279,-169 285,-175 285,-181 285,-181 285,-199 285,-199 285,-205 279,-211 273,-211 273,-211 229,-211 229,-211 223,-211 217,-205 217,-199 217,-199 217,-181 217,-181 217,-175 223,-169 229,-169"/>
</g>
<g id="clust43" class="cluster">
<title>outer_cluster_11</title>
</g>
<g id="clust44" class="cluster">
<title>cluster_11</title>
<path fill="#ffffb3" stroke="black" stroke-dasharray="5,2" d="M495,-90C495,-90 539,-90 539,-90 545,-90 551,-96 551,-102 551,-102 551,-120 551,-120 551,-126 545,-132 539,-132 539,-132 495,-132 495,-132 489,-132 483,-126 483,-120 483,-120 483,-102 483,-102 483,-96 489,-90 495,-90"/>
</g>
<!-- BinNode&#45;13761752264459356387&#45;&gt;BinNode&#45;2743974990046126629 -->
<g id="edge1" class="edge">
<title>BinNode&#45;13761752264459356387:s&#45;&gt;BinNode&#45;2743974990046126629</title>
<path fill="none" stroke="black" d="M312,-253C312,-235.76 299.86,-221.56 286.42,-211.12"/>
<polygon fill="black" stroke="black" points="290.01,-211.73 285,-210.01 287.84,-214.48 290.01,-211.73"/>
</g>
<!-- BinNode&#45;13761752264459356387&#45;&gt;BinNode&#45;4168770642720574498 -->
<g id="edge2" class="edge">
<title>BinNode&#45;13761752264459356387:s&#45;&gt;BinNode&#45;4168770642720574498</title>
<path fill="none" stroke="black" d="M342,-253C342,-235.76 354.14,-221.56 367.58,-211.12"/>
<polygon fill="black" stroke="black" points="366.16,-214.48 369,-210.01 363.99,-211.73 366.16,-214.48"/>
</g>
<!-- BinNode&#45;2743974990046126629&#45;&gt;BinNode&#45;16275225025205966978 -->
<g id="edge12" class="edge">
<title>BinNode&#45;2743974990046126629:s&#45;&gt;BinNode&#45;16275225025205966978</title>
<path fill="none" stroke="black" d="M266,-174C266,-160.89 189.95,-136.26 143.04,-122.31"/>
<polygon fill="black" stroke="black" points="146.07,-122.35 141,-120.83 144.02,-125.18 146.07,-122.35"/>
</g>
<!-- BinNode&#45;2743974990046126629&#45;&gt;BinNode&#45;5871781006564002453 -->
<g id="edge11" class="edge">
<title>BinNode&#45;2743974990046126629:s&#45;&gt;BinNode&#45;5871781006564002453</title>
<path fill="none" stroke="black" d="M236,-174C236,-160.84 236,-146.11 236,-134.3"/>
<polygon fill="black" stroke="black" points="237.75,-137 236,-132 234.25,-137 237.75,-137"/>
</g>
<!-- BinNode&#45;4168770642720574498&#45;&gt;BinNode&#45;9011352395714731490 -->
<g id="edge9" class="edge">
<title>BinNode&#45;4168770642720574498:s&#45;&gt;BinNode&#45;9011352395714731490</title>
<path fill="none" stroke="black" d="M388,-174C388,-160.84 388,-146.11 388,-134.3"/>
<polygon fill="black" stroke="black" points="389.75,-137 388,-132 386.25,-137 389.75,-137"/>
</g>
<!-- BinNode&#45;4168770642720574498&#45;&gt;BinNode&#45;4241682928276128773 -->
<g id="edge10" class="edge">
<title>BinNode&#45;4168770642720574498:s&#45;&gt;BinNode&#45;4241682928276128773</title>
<path fill="none" stroke="black" d="M418,-174C418,-143.23 452.77,-127.16 481.1,-119.17"/>
<polygon fill="black" stroke="black" points="479.88,-122.14 483,-117.86 477.89,-119.25 479.88,-122.14"/>
</g>
<!-- BinNode&#45;9011352395714731490&#45;&gt;Leaf&#45;6583887671197450110 -->
<g id="edge3" class="edge">
<title>BinNode&#45;9011352395714731490:s&#45;&gt;Leaf&#45;6583887671197450110</title>
<path fill="none" stroke="black" d="M373,-95C373,-81.04 367.81,-66.35 362.36,-54.77"/>
<polygon fill="black" stroke="black" points="365.43,-55.94 361.02,-53 362.64,-58.05 365.43,-55.94"/>
</g>
<!-- BinNode&#45;9011352395714731490&#45;&gt;Leaf&#45;1133650922057509460 -->
<g id="edge4" class="edge">
<title>BinNode&#45;9011352395714731490:s&#45;&gt;Leaf&#45;1133650922057509460</title>
<path fill="none" stroke="black" d="M403,-95C403,-81.04 408.19,-66.35 413.64,-54.77"/>
<polygon fill="black" stroke="black" points="413.36,-58.05 414.98,-53 410.57,-55.94 413.36,-58.05"/>
</g>
<!-- BinNode&#45;16275225025205966978&#45;&gt;Leaf&#45;5764174078010485202 -->
<g id="edge5" class="edge">
<title>BinNode&#45;16275225025205966978:s&#45;&gt;Leaf&#45;5764174078010485202</title>
<path fill="none" stroke="black" d="M92,-95C92,-79.1 82.13,-64.63 71.53,-53.67"/>
<polygon fill="black" stroke="black" points="75.21,-53.32 69.92,-53 73.86,-56.54 75.21,-53.32"/>
</g>
<!-- BinNode&#45;16275225025205966978&#45;&gt;Leaf&#45;712106664633447657 -->
<g id="edge6" class="edge">
<title>BinNode&#45;16275225025205966978:s&#45;&gt;Leaf&#45;712106664633447657</title>
<path fill="none" stroke="black" d="M122,-95C122,-81.84 122,-67.11 122,-55.3"/>
<polygon fill="black" stroke="black" points="123.75,-58 122,-53 120.25,-58 123.75,-58"/>
</g>
<!-- BinNode&#45;5871781006564002453&#45;&gt;Leaf&#45;3110390358963142526 -->
<g id="edge7" class="edge">
<title>BinNode&#45;5871781006564002453:s&#45;&gt;Leaf&#45;3110390358963142526</title>
<path fill="none" stroke="black" d="M221,-95C221,-81.04 215.81,-66.35 210.36,-54.77"/>
<polygon fill="black" stroke="black" points="213.43,-55.94 209.02,-53 210.64,-58.05 213.43,-55.94"/>
</g>
<!-- BinNode&#45;5871781006564002453&#45;&gt;Leaf&#45;8982171365527144979 -->
<g id="edge8" class="edge">
<title>BinNode&#45;5871781006564002453:s&#45;&gt;Leaf&#45;8982171365527144979</title>
<path fill="none" stroke="black" d="M251,-95C251,-81.04 256.19,-66.35 261.64,-54.77"/>
<polygon fill="black" stroke="black" points="261.36,-58.05 262.98,-53 258.57,-55.94 261.36,-58.05"/>
</g>
<!-- BinNode&#45;4241682928276128773&#45;&gt;Leaf&#45;1145338382888088809 -->
<g id="edge13" class="edge">
<title>BinNode&#45;4241682928276128773:s&#45;&gt;Leaf&#45;1145338382888088809</title>
<path fill="none" stroke="black" d="M502,-95C502,-81.84 502,-67.11 502,-55.3"/>
<polygon fill="black" stroke="black" points="503.75,-58 502,-53 500.25,-58 503.75,-58"/>
</g>
<!-- BinNode&#45;4241682928276128773&#45;&gt;Leaf&#45;2677158640708501374 -->
<g id="edge14" class="edge">
<title>BinNode&#45;4241682928276128773:s&#45;&gt;Leaf&#45;2677158640708501374</title>
<path fill="none" stroke="black" d="M532,-95C532,-79.1 541.87,-64.63 552.47,-53.67"/>
<polygon fill="black" stroke="black" points="550.14,-56.54 554.08,-53 548.79,-53.32 550.14,-56.54"/>
</g>
<!-- Leaf&#45;5764174078010485202 -->
<g id="node1" class="node">
<title>Leaf&#45;5764174078010485202</title>
<g id="a_node1"><a xlink:title="3: Leaf&#45;5764174078010485202">
<path fill="white" stroke="transparent" d="M24.67,-16C24.67,-16 67.33,-16 67.33,-16 72.67,-16 78,-21.33 78,-26.67 78,-26.67 78,-37.33 78,-37.33 78,-42.67 72.67,-48 67.33,-48 67.33,-48 24.67,-48 24.67,-48 19.33,-48 14,-42.67 14,-37.33 14,-37.33 14,-26.67 14,-26.67 14,-21.33 19.33,-16 24.67,-16"/>
<text text-anchor="start" x="19" y="-28.3" font-family="Helvetica,sans-Serif" font-size="14.00">Leaf(&quot;2&quot;)</text>
<path fill="none" stroke="black" d="M24.67,-16C24.67,-16 67.33,-16 67.33,-16 72.67,-16 78,-21.33 78,-26.67 78,-26.67 78,-37.33 78,-37.33 78,-42.67 72.67,-48 67.33,-48 67.33,-48 24.67,-48 24.67,-48 19.33,-48 14,-42.67 14,-37.33 14,-37.33 14,-26.67 14,-26.67 14,-21.33 19.33,-16 24.67,-16"/>
</a>
</g>
</g>
<!-- BinNode&#45;13761752264459356387 -->
<g id="node2" class="node">
<title>BinNode&#45;13761752264459356387</title>
<g id="a_node2"><a xlink:title="14: BinNode&#45;13761752264459356387">
<path fill="white" stroke="transparent" d="M306.67,-253C306.67,-253 347.33,-253 347.33,-253 352.67,-253 358,-258.33 358,-263.67 358,-263.67 358,-274.33 358,-274.33 358,-279.67 352.67,-285 347.33,-285 347.33,-285 306.67,-285 306.67,-285 301.33,-285 296,-279.67 296,-274.33 296,-274.33 296,-263.67 296,-263.67 296,-258.33 301.33,-253 306.67,-253"/>
<text text-anchor="start" x="301" y="-265.3" font-family="Helvetica,sans-Serif" font-size="14.00">BinNode</text>
<path fill="none" stroke="black" d="M306.67,-253C306.67,-253 347.33,-253 347.33,-253 352.67,-253 358,-258.33 358,-263.67 358,-263.67 358,-274.33 358,-274.33 358,-279.67 352.67,-285 347.33,-285 347.33,-285 306.67,-285 306.67,-285 301.33,-285 296,-279.67 296,-274.33 296,-274.33 296,-263.67 296,-263.67 296,-258.33 301.33,-253 306.67,-253"/>
</a>
</g>
</g>
<!-- BinNode&#45;2743974990046126629 -->
<g id="node3" class="node">
<title>BinNode&#45;2743974990046126629</title>
<g id="a_node3"><a xlink:title="12: BinNode&#45;2743974990046126629">
<path fill="white" stroke="transparent" d="M230.67,-174C230.67,-174 271.33,-174 271.33,-174 276.67,-174 282,-179.33 282,-184.67 282,-184.67 282,-195.33 282,-195.33 282,-200.67 276.67,-206 271.33,-206 271.33,-206 230.67,-206 230.67,-206 225.33,-206 220,-200.67 220,-195.33 220,-195.33 220,-184.67 220,-184.67 220,-179.33 225.33,-174 230.67,-174"/>
<text text-anchor="start" x="225" y="-186.3" font-family="Helvetica,sans-Serif" font-size="14.00">BinNode</text>
<path fill="none" stroke="black" d="M230.67,-174C230.67,-174 271.33,-174 271.33,-174 276.67,-174 282,-179.33 282,-184.67 282,-184.67 282,-195.33 282,-195.33 282,-200.67 276.67,-206 271.33,-206 271.33,-206 230.67,-206 230.67,-206 225.33,-206 220,-200.67 220,-195.33 220,-195.33 220,-184.67 220,-184.67 220,-179.33 225.33,-174 230.67,-174"/>
</a>
</g>
</g>
<!-- BinNode&#45;4168770642720574498 -->
<g id="node4" class="node">
<title>BinNode&#45;4168770642720574498</title>
<g id="a_node4"><a xlink:title="13: BinNode&#45;4168770642720574498">
<path fill="white" stroke="transparent" d="M382.67,-174C382.67,-174 423.33,-174 423.33,-174 428.67,-174 434,-179.33 434,-184.67 434,-184.67 434,-195.33 434,-195.33 434,-200.67 428.67,-206 423.33,-206 423.33,-206 382.67,-206 382.67,-206 377.33,-206 372,-200.67 372,-195.33 372,-195.33 372,-184.67 372,-184.67 372,-179.33 377.33,-174 382.67,-174"/>
<text text-anchor="start" x="377" y="-186.3" font-family="Helvetica,sans-Serif" font-size="14.00">BinNode</text>
<path fill="none" stroke="black" d="M382.67,-174C382.67,-174 423.33,-174 423.33,-174 428.67,-174 434,-179.33 434,-184.67 434,-184.67 434,-195.33 434,-195.33 434,-200.67 428.67,-206 423.33,-206 423.33,-206 382.67,-206 382.67,-206 377.33,-206 372,-200.67 372,-195.33 372,-195.33 372,-184.67 372,-184.67 372,-179.33 377.33,-174 382.67,-174"/>
</a>
</g>
</g>
<!-- Leaf&#45;712106664633447657 -->
<g id="node5" class="node">
<title>Leaf&#45;712106664633447657</title>
<g id="a_node5"><a xlink:title="4: Leaf&#45;712106664633447657">
<path fill="white" stroke="transparent" d="M100.67,-16C100.67,-16 143.33,-16 143.33,-16 148.67,-16 154,-21.33 154,-26.67 154,-26.67 154,-37.33 154,-37.33 154,-42.67 148.67,-48 143.33,-48 143.33,-48 100.67,-48 100.67,-48 95.33,-48 90,-42.67 90,-37.33 90,-37.33 90,-26.67 90,-26.67 90,-21.33 95.33,-16 100.67,-16"/>
<text text-anchor="start" x="95" y="-28.3" font-family="Helvetica,sans-Serif" font-size="14.00">Leaf(&quot;3&quot;)</text>
<path fill="none" stroke="black" d="M100.67,-16C100.67,-16 143.33,-16 143.33,-16 148.67,-16 154,-21.33 154,-26.67 154,-26.67 154,-37.33 154,-37.33 154,-42.67 148.67,-48 143.33,-48 143.33,-48 100.67,-48 100.67,-48 95.33,-48 90,-42.67 90,-37.33 90,-37.33 90,-26.67 90,-26.67 90,-21.33 95.33,-16 100.67,-16"/>
</a>
</g>
</g>
<!-- BinNode&#45;9011352395714731490 -->
<g id="node6" class="node">
<title>BinNode&#45;9011352395714731490</title>
<g id="a_node6"><a xlink:title="8: BinNode&#45;9011352395714731490">
<path fill="white" stroke="transparent" d="M367.67,-95C367.67,-95 408.33,-95 408.33,-95 413.67,-95 419,-100.33 419,-105.67 419,-105.67 419,-116.33 419,-116.33 419,-121.67 413.67,-127 408.33,-127 408.33,-127 367.67,-127 367.67,-127 362.33,-127 357,-121.67 357,-116.33 357,-116.33 357,-105.67 357,-105.67 357,-100.33 362.33,-95 367.67,-95"/>
<text text-anchor="start" x="362" y="-107.3" font-family="Helvetica,sans-Serif" font-size="14.00">BinNode</text>
<path fill="none" stroke="black" d="M367.67,-95C367.67,-95 408.33,-95 408.33,-95 413.67,-95 419,-100.33 419,-105.67 419,-105.67 419,-116.33 419,-116.33 419,-121.67 413.67,-127 408.33,-127 408.33,-127 367.67,-127 367.67,-127 362.33,-127 357,-121.67 357,-116.33 357,-116.33 357,-105.67 357,-105.67 357,-100.33 362.33,-95 367.67,-95"/>
</a>
</g>
</g>
<!-- Leaf&#45;6583887671197450110 -->
<g id="node7" class="node">
<title>Leaf&#45;6583887671197450110</title>
<g id="a_node7"><a xlink:title="6: Leaf&#45;6583887671197450110">
<path fill="white" stroke="transparent" d="M328.67,-16C328.67,-16 371.33,-16 371.33,-16 376.67,-16 382,-21.33 382,-26.67 382,-26.67 382,-37.33 382,-37.33 382,-42.67 376.67,-48 371.33,-48 371.33,-48 328.67,-48 328.67,-48 323.33,-48 318,-42.67 318,-37.33 318,-37.33 318,-26.67 318,-26.67 318,-21.33 323.33,-16 328.67,-16"/>
<text text-anchor="start" x="323" y="-28.3" font-family="Helvetica,sans-Serif" font-size="14.00">Leaf(&quot;4&quot;)</text>
<path fill="none" stroke="black" d="M328.67,-16C328.67,-16 371.33,-16 371.33,-16 376.67,-16 382,-21.33 382,-26.67 382,-26.67 382,-37.33 382,-37.33 382,-42.67 376.67,-48 371.33,-48 371.33,-48 328.67,-48 328.67,-48 323.33,-48 318,-42.67 318,-37.33 318,-37.33 318,-26.67 318,-26.67 318,-21.33 323.33,-16 328.67,-16"/>
</a>
</g>
</g>
<!-- Leaf&#45;1133650922057509460 -->
<g id="node8" class="node">
<title>Leaf&#45;1133650922057509460</title>
<g id="a_node8"><a xlink:title="7: Leaf&#45;1133650922057509460">
<path fill="white" stroke="transparent" d="M404.67,-16C404.67,-16 447.33,-16 447.33,-16 452.67,-16 458,-21.33 458,-26.67 458,-26.67 458,-37.33 458,-37.33 458,-42.67 452.67,-48 447.33,-48 447.33,-48 404.67,-48 404.67,-48 399.33,-48 394,-42.67 394,-37.33 394,-37.33 394,-26.67 394,-26.67 394,-21.33 399.33,-16 404.67,-16"/>
<text text-anchor="start" x="399" y="-28.3" font-family="Helvetica,sans-Serif" font-size="14.00">Leaf(&quot;5&quot;)</text>
<path fill="none" stroke="black" d="M404.67,-16C404.67,-16 447.33,-16 447.33,-16 452.67,-16 458,-21.33 458,-26.67 458,-26.67 458,-37.33 458,-37.33 458,-42.67 452.67,-48 447.33,-48 447.33,-48 404.67,-48 404.67,-48 399.33,-48 394,-42.67 394,-37.33 394,-37.33 394,-26.67 394,-26.67 394,-21.33 399.33,-16 404.67,-16"/>
</a>
</g>
</g>
<!-- Leaf&#45;1145338382888088809 -->
<g id="node9" class="node">
<title>Leaf&#45;1145338382888088809</title>
<g id="a_node9"><a xlink:title="9: Leaf&#45;1145338382888088809">
<path fill="white" stroke="transparent" d="M480.67,-16C480.67,-16 523.33,-16 523.33,-16 528.67,-16 534,-21.33 534,-26.67 534,-26.67 534,-37.33 534,-37.33 534,-42.67 528.67,-48 523.33,-48 523.33,-48 480.67,-48 480.67,-48 475.33,-48 470,-42.67 470,-37.33 470,-37.33 470,-26.67 470,-26.67 470,-21.33 475.33,-16 480.67,-16"/>
<text text-anchor="start" x="475" y="-28.3" font-family="Helvetica,sans-Serif" font-size="14.00">Leaf(&quot;6&quot;)</text>
<path fill="none" stroke="black" d="M480.67,-16C480.67,-16 523.33,-16 523.33,-16 528.67,-16 534,-21.33 534,-26.67 534,-26.67 534,-37.33 534,-37.33 534,-42.67 528.67,-48 523.33,-48 523.33,-48 480.67,-48 480.67,-48 475.33,-48 470,-42.67 470,-37.33 470,-37.33 470,-26.67 470,-26.67 470,-21.33 475.33,-16 480.67,-16"/>
</a>
</g>
</g>
<!-- BinNode&#45;16275225025205966978 -->
<g id="node10" class="node">
<title>BinNode&#45;16275225025205966978</title>
<g id="a_node10"><a xlink:title="5: BinNode&#45;16275225025205966978">
<path fill="white" stroke="transparent" d="M86.67,-95C86.67,-95 127.33,-95 127.33,-95 132.67,-95 138,-100.33 138,-105.67 138,-105.67 138,-116.33 138,-116.33 138,-121.67 132.67,-127 127.33,-127 127.33,-127 86.67,-127 86.67,-127 81.33,-127 76,-121.67 76,-116.33 76,-116.33 76,-105.67 76,-105.67 76,-100.33 81.33,-95 86.67,-95"/>
<text text-anchor="start" x="81" y="-107.3" font-family="Helvetica,sans-Serif" font-size="14.00">BinNode</text>
<path fill="none" stroke="black" d="M86.67,-95C86.67,-95 127.33,-95 127.33,-95 132.67,-95 138,-100.33 138,-105.67 138,-105.67 138,-116.33 138,-116.33 138,-121.67 132.67,-127 127.33,-127 127.33,-127 86.67,-127 86.67,-127 81.33,-127 76,-121.67 76,-116.33 76,-116.33 76,-105.67 76,-105.67 76,-100.33 81.33,-95 86.67,-95"/>
</a>
</g>
</g>
<!-- BinNode&#45;5871781006564002453 -->
<g id="node11" class="node">
<title>BinNode&#45;5871781006564002453</title>
<g id="a_node11"><a xlink:title="2: BinNode&#45;5871781006564002453">
<path fill="white" stroke="transparent" d="M215.67,-95C215.67,-95 256.33,-95 256.33,-95 261.67,-95 267,-100.33 267,-105.67 267,-105.67 267,-116.33 267,-116.33 267,-121.67 261.67,-127 256.33,-127 256.33,-127 215.67,-127 215.67,-127 210.33,-127 205,-121.67 205,-116.33 205,-116.33 205,-105.67 205,-105.67 205,-100.33 210.33,-95 215.67,-95"/>
<text text-anchor="start" x="210" y="-107.3" font-family="Helvetica,sans-Serif" font-size="14.00">BinNode</text>
<path fill="none" stroke="black" d="M215.67,-95C215.67,-95 256.33,-95 256.33,-95 261.67,-95 267,-100.33 267,-105.67 267,-105.67 267,-116.33 267,-116.33 267,-121.67 261.67,-127 256.33,-127 256.33,-127 215.67,-127 215.67,-127 210.33,-127 205,-121.67 205,-116.33 205,-116.33 205,-105.67 205,-105.67 205,-100.33 210.33,-95 215.67,-95"/>
</a>
</g>
</g>
<!-- Leaf&#45;3110390358963142526 -->
<g id="node12" class="node">
<title>Leaf&#45;3110390358963142526</title>
<g id="a_node12"><a xlink:title="0: Leaf&#45;3110390358963142526">
<path fill="white" stroke="transparent" d="M176.67,-16C176.67,-16 219.33,-16 219.33,-16 224.67,-16 230,-21.33 230,-26.67 230,-26.67 230,-37.33 230,-37.33 230,-42.67 224.67,-48 219.33,-48 219.33,-48 176.67,-48 176.67,-48 171.33,-48 166,-42.67 166,-37.33 166,-37.33 166,-26.67 166,-26.67 166,-21.33 171.33,-16 176.67,-16"/>
<text text-anchor="start" x="171" y="-28.3" font-family="Helvetica,sans-Serif" font-size="14.00">Leaf(&quot;0&quot;)</text>
<path fill="none" stroke="black" d="M176.67,-16C176.67,-16 219.33,-16 219.33,-16 224.67,-16 230,-21.33 230,-26.67 230,-26.67 230,-37.33 230,-37.33 230,-42.67 224.67,-48 219.33,-48 219.33,-48 176.67,-48 176.67,-48 171.33,-48 166,-42.67 166,-37.33 166,-37.33 166,-26.67 166,-26.67 166,-21.33 171.33,-16 176.67,-16"/>
</a>
</g>
</g>
<!-- Leaf&#45;8982171365527144979 -->
<g id="node13" class="node">
<title>Leaf&#45;8982171365527144979</title>
<g id="a_node13"><a xlink:title="1: Leaf&#45;8982171365527144979">
<path fill="white" stroke="transparent" d="M252.67,-16C252.67,-16 295.33,-16 295.33,-16 300.67,-16 306,-21.33 306,-26.67 306,-26.67 306,-37.33 306,-37.33 306,-42.67 300.67,-48 295.33,-48 295.33,-48 252.67,-48 252.67,-48 247.33,-48 242,-42.67 242,-37.33 242,-37.33 242,-26.67 242,-26.67 242,-21.33 247.33,-16 252.67,-16"/>
<text text-anchor="start" x="247" y="-28.3" font-family="Helvetica,sans-Serif" font-size="14.00">Leaf(&quot;1&quot;)</text>
<path fill="none" stroke="black" d="M252.67,-16C252.67,-16 295.33,-16 295.33,-16 300.67,-16 306,-21.33 306,-26.67 306,-26.67 306,-37.33 306,-37.33 306,-42.67 300.67,-48 295.33,-48 295.33,-48 252.67,-48 252.67,-48 247.33,-48 242,-42.67 242,-37.33 242,-37.33 242,-26.67 242,-26.67 242,-21.33 247.33,-16 252.67,-16"/>
</a>
</g>
</g>
<!-- BinNode&#45;4241682928276128773 -->
<g id="node14" class="node">
<title>BinNode&#45;4241682928276128773</title>
<g id="a_node14"><a xlink:title="11: BinNode&#45;4241682928276128773">
<path fill="white" stroke="transparent" d="M496.67,-95C496.67,-95 537.33,-95 537.33,-95 542.67,-95 548,-100.33 548,-105.67 548,-105.67 548,-116.33 548,-116.33 548,-121.67 542.67,-127 537.33,-127 537.33,-127 496.67,-127 496.67,-127 491.33,-127 486,-121.67 486,-116.33 486,-116.33 486,-105.67 486,-105.67 486,-100.33 491.33,-95 496.67,-95"/>
<text text-anchor="start" x="491" y="-107.3" font-family="Helvetica,sans-Serif" font-size="14.00">BinNode</text>
<path fill="none" stroke="black" d="M496.67,-95C496.67,-95 537.33,-95 537.33,-95 542.67,-95 548,-100.33 548,-105.67 548,-105.67 548,-116.33 548,-116.33 548,-121.67 542.67,-127 537.33,-127 537.33,-127 496.67,-127 496.67,-127 491.33,-127 486,-121.67 486,-116.33 486,-116.33 486,-105.67 486,-105.67 486,-100.33 491.33,-95 496.67,-95"/>
</a>
</g>
</g>
<!-- Leaf&#45;2677158640708501374 -->
<g id="node15" class="node">
<title>Leaf&#45;2677158640708501374</title>
<g id="a_node15"><a xlink:title="10: Leaf&#45;2677158640708501374">
<path fill="white" stroke="transparent" d="M556.67,-16C556.67,-16 599.33,-16 599.33,-16 604.67,-16 610,-21.33 610,-26.67 610,-26.67 610,-37.33 610,-37.33 610,-42.67 604.67,-48 599.33,-48 599.33,-48 556.67,-48 556.67,-48 551.33,-48 546,-42.67 546,-37.33 546,-37.33 546,-26.67 546,-26.67 546,-21.33 551.33,-16 556.67,-16"/>
<text text-anchor="start" x="551" y="-28.3" font-family="Helvetica,sans-Serif" font-size="14.00">Leaf(&quot;7&quot;)</text>
<path fill="none" stroke="black" d="M556.67,-16C556.67,-16 599.33,-16 599.33,-16 604.67,-16 610,-21.33 610,-26.67 610,-26.67 610,-37.33 610,-37.33 610,-42.67 604.67,-48 599.33,-48 599.33,-48 556.67,-48 556.67,-48 551.33,-48 546,-42.67 546,-37.33 546,-37.33 546,-26.67 546,-26.67 546,-21.33 551.33,-16 556.67,-16"/>
</a>
</g>
</g>
</g>
</svg>
